<svg width="20" height="20" viewBox="0 0 20 20" fill="none" xmlns="http://www.w3.org/2000/svg">
<path d="M6.66602 1.66666V4.16666" stroke="#486632" stroke-width="1.5" stroke-miterlimit="10" stroke-linecap="round" stroke-linejoin="round"/>
<path d="M13.334 1.66666V4.16666" stroke="#486632" stroke-width="1.5" stroke-miterlimit="10" stroke-linecap="round" stroke-linejoin="round"/>
<path d="M2.91602 7.57501L17.0827 7.57501" stroke="#486632" stroke-width="1.5" stroke-miterlimit="10" stroke-linecap="round" stroke-linejoin="round"/>
<path d="M17.5 7.08332V14.1667C17.5 16.6667 16.25 18.3333 13.3333 18.3333H6.66667C3.75 18.3333 2.5 16.6667 2.5 14.1667L2.5 7.08332C2.5 4.58332 3.75 2.91666 6.66667 2.91666L13.3333 2.91666C16.25 2.91666 17.5 4.58332 17.5 7.08332Z" stroke="#486632" stroke-width="1.5" stroke-miterlimit="10" stroke-linecap="round" stroke-linejoin="round"/>
<path d="M13.0781 11.4167H13.0856" stroke="#486632" stroke-width="1.5" stroke-linecap="round" stroke-linejoin="round"/>
<path d="M13.0781 13.9167H13.0856" stroke="#486632" stroke-width="1.5" stroke-linecap="round" stroke-linejoin="round"/>
<path d="M9.99607 11.4167H10.0036" stroke="#486632" stroke-width="1.5" stroke-linecap="round" stroke-linejoin="round"/>
<path d="M9.99609 13.9167H10.0036" stroke="#486632" stroke-width="1.5" stroke-linecap="round" stroke-linejoin="round"/>
<path d="M6.91209 11.4167H6.91957" stroke="#486632" stroke-width="1.5" stroke-linecap="round" stroke-linejoin="round"/>
<path d="M6.91209 13.9167H6.91957" stroke="#486632" stroke-width="1.5" stroke-linecap="round" stroke-linejoin="round"/>
</svg>
