<svg width="20" height="20" viewBox="0 0 20 20" fill="none"
     xmlns="http://www.w3.org/2000/svg">
    <path d="M12.9823 10C12.9823 11.65 11.649 12.9833 9.99896 12.9833C8.34896 12.9833 7.01562 11.65 7.01562 10C7.01562 8.35 8.34896 7.01666 9.99896 7.01666C11.649 7.01666 12.9823 8.35 12.9823 10Z"
          stroke="#717171" stroke-width="1.5" stroke-linecap="round"
          stroke-linejoin="round"/>
    <path d="M10.0018 16.8917C12.9435 16.8917 15.6852 15.1583 17.5935 12.1583C18.3435 10.9833 18.3435 9.00834 17.5935 7.83334C15.6852 4.83334 12.9435 3.10001 10.0018 3.10001C7.06016 3.10001 4.31849 4.83334 2.41016 7.83334C1.66016 9.00834 1.66016 10.9833 2.41016 12.1583C4.31849 15.1583 7.06016 16.8917 10.0018 16.8917Z"
          stroke="#717171" stroke-width="1.5" stroke-linecap="round"
          stroke-linejoin="round"/>
</svg>
