<svg width="16" height="16" viewBox="0 0 16 16" fill="none" xmlns="http://www.w3.org/2000/svg">
<rect width="16" height="16" rx="8" fill="#486632"/>
<path d="M7.13672 4.46961C7.13672 4.24295 7.21672 4.05962 7.37672 3.91962C7.53672 3.77295 7.74672 3.69962 8.00672 3.69962C8.26672 3.69962 8.47672 3.77295 8.63672 3.91962C8.79672 4.05962 8.87672 4.24295 8.87672 4.46961C8.87672 4.68962 8.79672 4.87295 8.63672 5.01962C8.47672 5.15962 8.26672 5.22962 8.00672 5.22962C7.74672 5.22962 7.53672 5.15962 7.37672 5.01962C7.21672 4.87295 7.13672 4.68962 7.13672 4.46961ZM8.70672 6.05962V11.5996H7.29672V6.05962H8.70672Z" fill="white"/>
</svg>
