<svg width="21" height="20" viewBox="0 0 21 20" fill="none" xmlns="http://www.w3.org/2000/svg">
<path d="M18 4.98332C15.225 4.70832 12.4333 4.56665 9.65 4.56665C8 4.56665 6.35 4.64998 4.7 4.81665L3 4.98332" stroke="#486632" stroke-width="1.5" stroke-linecap="round" stroke-linejoin="round"/>
<path d="M7.58301 4.14169L7.76634 3.05002C7.89967 2.25835 7.99967 1.66669 9.40801 1.66669H11.5913C12.9997 1.66669 13.108 2.29169 13.233 3.05835L13.4163 4.14169" stroke="#486632" stroke-width="1.5" stroke-linecap="round" stroke-linejoin="round"/>
<path d="M16.2087 7.61664L15.667 16.0083C15.5753 17.3166 15.5003 18.3333 13.1753 18.3333H7.82533C5.50033 18.3333 5.42533 17.3166 5.33366 16.0083L4.79199 7.61664" stroke="#486632" stroke-width="1.5" stroke-linecap="round" stroke-linejoin="round"/>
<path d="M9.1084 13.75H11.8834" stroke="#486632" stroke-width="1.5" stroke-linecap="round" stroke-linejoin="round"/>
<path d="M8.41699 10.4167H12.5837" stroke="#486632" stroke-width="1.5" stroke-linecap="round" stroke-linejoin="round"/>
</svg>
