<svg width="21" height="20" viewBox="0 0 21 20" fill="none" xmlns="http://www.w3.org/2000/svg">
<path d="M18 4.98332C15.225 4.70832 12.4333 4.56665 9.65 4.56665C8 4.56665 6.35 4.64998 4.7 4.81665L3 4.98332" stroke="white" stroke-width="1.5" stroke-linecap="round" stroke-linejoin="round"/>
<path d="M7.58203 4.14175L7.76536 3.05008C7.8987 2.25841 7.9987 1.66675 9.40703 1.66675H11.5904C12.9987 1.66675 13.107 2.29175 13.232 3.05841L13.4154 4.14175" stroke="white" stroke-width="1.5" stroke-linecap="round" stroke-linejoin="round"/>
<path d="M16.2096 7.6167L15.668 16.0084C15.5763 17.3167 15.5013 18.3334 13.1763 18.3334H7.8263C5.5013 18.3334 5.4263 17.3167 5.33464 16.0084L4.79297 7.6167" stroke="white" stroke-width="1.5" stroke-linecap="round" stroke-linejoin="round"/>
<path d="M9.10938 13.75H11.8844" stroke="white" stroke-width="1.5" stroke-linecap="round" stroke-linejoin="round"/>
<path d="M8.41797 10.4167H12.5846" stroke="white" stroke-width="1.5" stroke-linecap="round" stroke-linejoin="round"/>
</svg>
